<svg width="187" height="63" viewBox="0 0 187 63" fill="none" xmlns="http://www.w3.org/2000/svg">
<rect x="7.5" y="7.5" width="179" height="55" rx="27.5" fill="white" stroke="#A6469D"/>
<path d="M60.1328 22.7734V27H58.1562V15.625H62.5078C63.7786 15.625 64.7865 15.9557 65.5312 16.6172C66.2812 17.2786 66.6562 18.1536 66.6562 19.2422C66.6562 20.3568 66.2891 21.224 65.5547 21.8438C64.8255 22.4635 63.8021 22.7734 62.4844 22.7734H60.1328ZM60.1328 21.1875H62.5078C63.2109 21.1875 63.7474 21.0234 64.1172 20.6953C64.487 20.362 64.6719 19.8828 64.6719 19.2578C64.6719 18.6432 64.4844 18.1536 64.1094 17.7891C63.7344 17.4193 63.2188 17.2292 62.5625 17.2188H60.1328V21.1875ZM73.1641 27C73.0807 26.8385 73.0078 26.5755 72.9453 26.2109C72.3411 26.8411 71.6016 27.1562 70.7266 27.1562C69.8776 27.1562 69.1849 26.9141 68.6484 26.4297C68.112 25.9453 67.8438 25.3464 67.8438 24.6328C67.8438 23.7318 68.1771 23.0417 68.8438 22.5625C69.5156 22.0781 70.474 21.8359 71.7188 21.8359H72.8828V21.2812C72.8828 20.8438 72.7604 20.4948 72.5156 20.2344C72.2708 19.9688 71.8984 19.8359 71.3984 19.8359C70.9661 19.8359 70.612 19.9453 70.3359 20.1641C70.0599 20.3776 69.9219 20.651 69.9219 20.9844H68.0234C68.0234 20.5208 68.1771 20.0885 68.4844 19.6875C68.7917 19.2812 69.2083 18.9635 69.7344 18.7344C70.2656 18.5052 70.8568 18.3906 71.5078 18.3906C72.4974 18.3906 73.2865 18.6406 73.875 19.1406C74.4635 19.6354 74.7656 20.3333 74.7812 21.2344V25.0469C74.7812 25.8073 74.888 26.4141 75.1016 26.8672V27H73.1641ZM71.0781 25.6328C71.4531 25.6328 71.8047 25.5417 72.1328 25.3594C72.4661 25.1771 72.7161 24.9323 72.8828 24.625V23.0312H71.8594C71.1562 23.0312 70.6276 23.1536 70.2734 23.3984C69.9193 23.6432 69.7422 23.9896 69.7422 24.4375C69.7422 24.8021 69.862 25.0938 70.1016 25.3125C70.3464 25.526 70.6719 25.6328 71.0781 25.6328ZM76.4375 22.7109C76.4375 21.3984 76.7448 20.3516 77.3594 19.5703C77.9792 18.7839 78.7995 18.3906 79.8203 18.3906C80.7839 18.3906 81.5417 18.7266 82.0938 19.3984L82.1797 18.5469H83.8906V26.7422C83.8906 27.8516 83.5443 28.7266 82.8516 29.3672C82.1641 30.0078 81.2344 30.3281 80.0625 30.3281C79.4427 30.3281 78.8359 30.1979 78.2422 29.9375C77.6536 29.6823 77.2057 29.3464 76.8984 28.9297L77.7969 27.7891C78.3802 28.4818 79.099 28.8281 79.9531 28.8281C80.5833 28.8281 81.0807 28.6562 81.4453 28.3125C81.8099 27.974 81.9922 27.474 81.9922 26.8125V26.2422C81.4453 26.8516 80.7161 27.1562 79.8047 27.1562C78.8151 27.1562 78.0052 26.763 77.375 25.9766C76.75 25.1901 76.4375 24.1016 76.4375 22.7109ZM78.3281 22.875C78.3281 23.724 78.5 24.3932 78.8438 24.8828C79.1927 25.3672 79.6745 25.6094 80.2891 25.6094C81.0547 25.6094 81.6224 25.2812 81.9922 24.625V20.9062C81.6328 20.2656 81.0703 19.9453 80.3047 19.9453C79.6797 19.9453 79.1927 20.1927 78.8438 20.6875C78.5 21.1823 78.3281 21.9115 78.3281 22.875ZM90.8984 27C90.8151 26.8385 90.7422 26.5755 90.6797 26.2109C90.0755 26.8411 89.3359 27.1562 88.4609 27.1562C87.612 27.1562 86.9193 26.9141 86.3828 26.4297C85.8464 25.9453 85.5781 25.3464 85.5781 24.6328C85.5781 23.7318 85.9115 23.0417 86.5781 22.5625C87.25 22.0781 88.2083 21.8359 89.4531 21.8359H90.6172V21.2812C90.6172 20.8438 90.4948 20.4948 90.25 20.2344C90.0052 19.9688 89.6328 19.8359 89.1328 19.8359C88.7005 19.8359 88.3464 19.9453 88.0703 20.1641C87.7943 20.3776 87.6562 20.651 87.6562 20.9844H85.7578C85.7578 20.5208 85.9115 20.0885 86.2188 19.6875C86.526 19.2812 86.9427 18.9635 87.4688 18.7344C88 18.5052 88.5911 18.3906 89.2422 18.3906C90.2318 18.3906 91.0208 18.6406 91.6094 19.1406C92.1979 19.6354 92.5 20.3333 92.5156 21.2344V25.0469C92.5156 25.8073 92.6224 26.4141 92.8359 26.8672V27H90.8984ZM88.8125 25.6328C89.1875 25.6328 89.5391 25.5417 89.8672 25.3594C90.2005 25.1771 90.4505 24.9323 90.6172 24.625V23.0312H89.5938C88.8906 23.0312 88.362 23.1536 88.0078 23.3984C87.6536 23.6432 87.4766 23.9896 87.4766 24.4375C87.4766 24.8021 87.5964 25.0938 87.8359 25.3125C88.0807 25.526 88.4062 25.6328 88.8125 25.6328ZM98.9297 20.2812C98.6797 20.2396 98.4219 20.2188 98.1562 20.2188C97.2865 20.2188 96.7005 20.5521 96.3984 21.2188V27H94.5V18.5469H96.3125L96.3594 19.4922C96.8177 18.7578 97.4531 18.3906 98.2656 18.3906C98.5365 18.3906 98.7604 18.4271 98.9375 18.5L98.9297 20.2812ZM107.586 25.6406C108.06 25.6406 108.453 25.5026 108.766 25.2266C109.078 24.9505 109.245 24.6094 109.266 24.2031H111.055C111.034 24.7292 110.87 25.2214 110.562 25.6797C110.255 26.1328 109.839 26.4922 109.312 26.7578C108.786 27.0234 108.219 27.1562 107.609 27.1562C106.427 27.1562 105.49 26.7734 104.797 26.0078C104.104 25.2422 103.758 24.1849 103.758 22.8359V22.6406C103.758 21.3542 104.102 20.3255 104.789 19.5547C105.477 18.7786 106.414 18.3906 107.602 18.3906C108.607 18.3906 109.424 18.6849 110.055 19.2734C110.69 19.8568 111.023 20.625 111.055 21.5781H109.266C109.245 21.0938 109.078 20.6953 108.766 20.3828C108.458 20.0703 108.065 19.9141 107.586 19.9141C106.971 19.9141 106.497 20.138 106.164 20.5859C105.831 21.0286 105.661 21.7031 105.656 22.6094V22.9141C105.656 23.8307 105.82 24.5156 106.148 24.9688C106.482 25.4167 106.961 25.6406 107.586 25.6406ZM112.133 22.6953C112.133 21.8672 112.297 21.1224 112.625 20.4609C112.953 19.7943 113.414 19.2839 114.008 18.9297C114.602 18.5703 115.284 18.3906 116.055 18.3906C117.195 18.3906 118.12 18.7578 118.828 19.4922C119.542 20.2266 119.927 21.2005 119.984 22.4141L119.992 22.8594C119.992 23.6927 119.831 24.4375 119.508 25.0938C119.19 25.75 118.732 26.2578 118.133 26.6172C117.539 26.9766 116.852 27.1562 116.07 27.1562C114.878 27.1562 113.922 26.7604 113.203 25.9688C112.49 25.1719 112.133 24.112 112.133 22.7891V22.6953ZM114.031 22.8594C114.031 23.7292 114.211 24.4115 114.57 24.9062C114.93 25.3958 115.43 25.6406 116.07 25.6406C116.711 25.6406 117.208 25.3906 117.562 24.8906C117.922 24.3906 118.102 23.6589 118.102 22.6953C118.102 21.8411 117.917 21.1641 117.547 20.6641C117.182 20.1641 116.685 19.9141 116.055 19.9141C115.435 19.9141 114.943 20.1615 114.578 20.6562C114.214 21.1458 114.031 21.8802 114.031 22.8594ZM123.359 18.5469L123.414 19.5234C124.039 18.7682 124.859 18.3906 125.875 18.3906C127.635 18.3906 128.531 19.3984 128.562 21.4141V27H126.664V21.5234C126.664 20.987 126.547 20.5911 126.312 20.3359C126.083 20.0755 125.706 19.9453 125.18 19.9453C124.414 19.9453 123.844 20.2917 123.469 20.9844V27H121.57V18.5469H123.359Z" fill="#A6469D"/>
<path d="M147.255 50.7436H135.251C134.01 50.7436 133 49.7192 133 48.4604V36.2832C133 35.0244 134.01 34 135.251 34H154.757C155.998 34 157.008 35.0244 157.008 36.2832V37.8054C157.008 38.2255 156.672 38.5664 156.258 38.5664C155.844 38.5664 155.507 38.2255 155.507 37.8054V36.2832C155.507 35.8631 155.171 35.5221 154.757 35.5221H135.251C134.837 35.5221 134.5 35.8631 134.5 36.2832V48.4604C134.5 48.8805 134.837 49.2214 135.251 49.2214H147.255C147.669 49.2214 148.005 49.5624 148.005 49.9825C148.005 50.4026 147.669 50.7436 147.255 50.7436Z" fill="#A6469D"/>
<path d="M136.872 53.3617H146.833C147.172 53.3617 147.447 53.1014 147.447 52.7806C147.447 52.4599 147.172 52.1996 146.833 52.1996H136.872V53.3617Z" fill="#A6469D"/>
<path d="M144.905 39.8239C144.761 39.8239 144.618 39.9303 144.582 40.0722L143.65 43.3246C143.614 43.4547 143.542 43.4665 143.494 43.3246L142.406 40.0604C142.359 39.9303 142.215 39.8239 142.072 39.8239H141.88C141.737 39.8239 141.582 39.9303 141.546 40.0604L140.47 43.3246C140.422 43.4547 140.362 43.4547 140.314 43.3246L139.37 40.0722C139.334 39.9421 139.179 39.8239 139.035 39.8239H138.641C138.497 39.8239 138.414 39.9303 138.462 40.0722L139.908 44.5664C139.956 44.6965 140.099 44.8148 140.243 44.8148H140.518C140.649 44.8148 140.781 44.7201 140.816 44.6019L141.892 41.4205C141.94 41.2904 142.012 41.2904 142.06 41.4205L143.136 44.5782C143.183 44.7083 143.339 44.8148 143.47 44.8148H143.733C143.865 44.8148 144.008 44.7083 144.044 44.5901L145.479 40.0722C145.526 39.9421 145.443 39.8239 145.299 39.8239H144.905Z" fill="#A6469D"/>
<path d="M137.386 40.8645C137.673 40.8645 137.9 40.6398 137.9 40.3559C137.9 40.0721 137.673 39.8474 137.386 39.8474C137.099 39.8474 136.872 40.0721 136.872 40.3559C136.872 40.6279 137.099 40.8645 137.386 40.8645Z" fill="#A6469D"/>
<path d="M145.652 44.803C145.938 44.803 146.166 44.5783 146.166 44.2944C146.166 44.0106 145.938 43.7859 145.652 43.7859C145.364 43.7859 145.138 44.0106 145.138 44.2944C145.138 44.5783 145.377 44.803 145.652 44.803Z" fill="#A6469D"/>
<path d="M157.269 52.7651L152.578 53.989C151.608 54.242 150.553 53.5467 150.226 52.4392L147.062 41.726C146.735 40.6185 147.258 39.5113 148.228 39.2583L152.919 38.0344C153.889 37.7814 154.944 38.4767 155.271 39.5842L158.434 50.2975C158.762 51.4049 158.238 52.5121 157.269 52.7651ZM148.624 40.5974C148.3 40.6819 148.126 41.0504 148.235 41.42L151.399 52.1332C151.508 52.5028 151.859 52.7343 152.183 52.6498L156.873 51.426C157.197 51.3415 157.371 50.973 157.262 50.6034L154.098 39.8902C153.989 39.5206 153.638 39.2891 153.314 39.3736L148.624 40.5974Z" fill="#A6469D"/>
<path d="M153.755 50.4524C153.592 50.4524 153.433 50.3907 153.318 50.2812C153.203 50.1717 153.136 50.0226 153.136 49.87C153.136 49.7174 153.201 49.566 153.318 49.4588C153.433 49.3505 153.593 49.2876 153.755 49.2876C153.918 49.2876 154.079 49.3494 154.193 49.4588C154.308 49.5672 154.375 49.7174 154.375 49.87C154.375 50.0226 154.309 50.174 154.193 50.2812C154.077 50.3895 153.918 50.4524 153.755 50.4524Z" fill="#A6469D"/>
<path d="M108.759 49.3481C108.759 49.0726 108.849 48.843 109.03 48.6593C109.217 48.4757 109.494 48.3838 109.861 48.3838C110.229 48.3838 110.506 48.4757 110.693 48.6593C110.886 48.843 110.983 49.0726 110.983 49.3481C110.983 49.6121 110.886 49.8331 110.693 50.011C110.506 50.1889 110.229 50.2779 109.861 50.2779C109.494 50.2779 109.217 50.1889 109.03 50.011C108.849 49.8331 108.759 49.6121 108.759 49.3481Z" fill="#A6469D"/>
<path d="M117.545 49.0554C118.183 49.0554 118.741 48.8832 119.218 48.5388C119.695 48.1944 119.959 47.764 120.011 47.2474H121.703C121.671 47.7812 121.464 48.2891 121.084 48.7713C120.704 49.2534 120.194 49.6379 119.556 49.9249C118.924 50.2119 118.254 50.3554 117.545 50.3554C116.12 50.3554 114.985 49.9335 114.141 49.0898C113.303 48.2403 112.884 47.0809 112.884 45.6116V45.3447C112.884 44.4378 113.071 43.6314 113.445 42.9254C113.819 42.2195 114.354 41.6713 115.05 41.281C115.753 40.8908 116.581 40.6956 117.535 40.6956C118.708 40.6956 119.682 41.0084 120.455 41.634C121.236 42.2597 121.651 43.0718 121.703 44.0705H120.011C119.959 43.4678 119.701 42.9742 119.237 42.5897C118.779 42.1994 118.212 42.0042 117.535 42.0042C116.626 42.0042 115.92 42.297 115.417 42.8824C114.921 43.4621 114.673 44.303 114.673 45.405V45.7063C114.673 46.7796 114.921 47.6061 115.417 48.1858C115.914 48.7655 116.623 49.0554 117.545 49.0554Z" fill="#A6469D"/>
<path d="M125.064 50.1832H123.275V36.9591H125.064V50.1832Z" fill="#A6469D"/>
<path d="M73.8609 44.4066V44.4618C73.8609 45.5928 73.7431 46.6686 73.2721 47.4686C72.8306 48.2134 72.0946 48.7375 70.711 48.7375C70.711 48.7375 70.6816 48.7375 70.6522 48.7375H70.6227C69.2097 48.7375 68.5032 48.2134 68.0322 47.4686C67.5612 46.6962 67.4434 45.5928 67.4434 44.4618V44.379C67.4434 43.248 67.5612 42.3653 68.0322 41.5929C68.4738 40.8205 69.2097 40.324 70.6227 40.324H70.6522H70.6816C72.0946 40.324 72.8011 40.8481 73.2721 41.5929C73.7137 42.3653 73.8609 43.2756 73.8609 44.379V44.4066V44.4066ZM74.273 39.6619C74.2436 39.6619 74.2436 39.6343 74.273 39.6619C73.4782 38.9723 72.2712 38.5861 70.8582 38.5861C70.8288 38.5861 70.7993 38.5861 70.7699 38.5861C69.6218 38.5861 68.4738 38.8068 67.4729 39.6068V38.9171V35.3586C67.4729 35.2759 67.4434 35.1655 67.3551 35.1103C67.2668 35.0552 67.1785 35 67.0607 35H65.736C65.6183 35 65.53 35.0276 65.4417 35.1103C65.3533 35.1655 65.3239 35.2759 65.3239 35.3586V38.8895V46.4204V49.9513C65.3239 50.034 65.3533 50.1444 65.4417 50.1995C65.53 50.2547 65.6183 50.3099 65.736 50.3099H67.0607C67.1785 50.3099 67.2668 50.2823 67.3551 50.1995C67.4434 50.1444 67.4729 50.034 67.4729 49.9513V49.2341C68.356 50.1444 69.6218 50.4754 70.7699 50.4754H70.8582C72.2712 50.4754 73.4782 50.0616 74.2436 49.3996C75.6566 48.1306 75.9804 46.2273 75.9804 44.4342C75.9804 42.6136 75.6566 40.9033 74.273 39.6619Z" fill="#6B196B"/>
<path d="M85.9889 44.6549C85.9889 45.7859 85.8712 46.6687 85.4002 47.4411C84.9586 48.2135 84.2226 48.71 82.8096 48.71H82.7802H82.7508C81.3377 48.71 80.6312 48.1859 80.1602 47.4411C79.6892 46.6687 79.5715 45.7584 79.5715 44.6549V44.5998C79.5715 43.4688 79.6892 42.3653 80.1602 41.593C80.6018 40.8206 81.3377 40.324 82.7508 40.324H82.7802C82.8096 40.324 82.8096 40.324 82.8391 40.324C84.2226 40.3516 84.9586 40.8482 85.4002 41.593C85.8417 42.3653 85.9889 43.4688 85.9889 44.5998V44.6274V44.6549V44.6549ZM86.3716 49.3445C87.7552 48.1031 88.079 46.3928 88.079 44.5998C88.079 42.8067 87.7552 40.8757 86.3422 39.6344C85.5768 38.9723 84.3698 38.5586 82.9568 38.5586H82.8685C81.7204 38.5586 80.4546 38.862 79.5715 39.7999V39.0827C79.5715 38.9999 79.542 38.8896 79.4537 38.8344C79.3654 38.7792 79.2771 38.7241 79.1593 38.7241H77.8346C77.7169 38.7241 77.6286 38.7517 77.5403 38.8344C77.452 38.8896 77.4225 38.9999 77.4225 39.0827V42.6136V50.1444V53.6754C77.4225 53.7581 77.452 53.8685 77.5403 53.9236C77.6286 53.9788 77.7169 54.034 77.8346 54.034H79.1593C79.2771 54.034 79.3654 54.0064 79.4537 53.9236C79.542 53.8685 79.5715 53.7581 79.5715 53.6754V50.1168V49.4272C80.5724 50.2272 81.7204 50.4479 82.8685 50.4479C82.8979 50.4479 82.9274 50.4479 82.9568 50.4479C84.3698 50.4203 85.6062 50.0341 86.3716 49.3445C86.3716 49.3445 86.3716 49.372 86.3716 49.3445Z" fill="#6B196B"/>
<path d="M105.24 51.358C105.123 51.6615 104.917 52.1304 104.769 52.4063C104.769 52.4063 104.504 52.9304 104.151 53.2614C103.827 53.5648 103.445 53.7855 103.033 53.8959C102.62 54.0062 102.355 54.0338 102.355 54.0338C102.032 54.0614 101.531 54.0614 101.266 54.0614C101.001 54.0614 100.795 53.8131 100.795 53.4821V52.6545C100.795 52.3511 100.942 52.0752 101.09 52.0752C101.266 52.0752 101.649 52.0476 102.002 52.0201C102.002 52.0201 102.267 51.9925 102.473 51.827C102.709 51.6615 102.826 51.4132 102.826 51.4132C102.974 51.1373 103.18 50.6408 103.268 50.3649L103.504 49.7305C103.621 49.427 103.621 48.9581 103.504 48.6546L99.8238 39.2204C99.7061 38.917 99.8827 38.6963 100.236 38.6963H101.531C101.855 38.6963 102.238 38.9446 102.326 39.248L104.74 45.9237C104.858 46.2271 105.034 46.2271 105.123 45.9237L107.478 39.248C107.595 38.9446 107.949 38.6963 108.272 38.6963H109.568C109.892 38.6963 110.068 38.9446 109.98 39.2204L105.24 51.358Z" fill="#6B196B"/>
<path d="M91.2306 46.8892C91.2306 46.2547 91.4367 45.8961 91.79 45.6202C92.1726 45.3444 92.8203 45.1789 93.7917 45.1789H97.0299V46.1168C97.0299 47.0547 96.8238 47.5512 96.5295 47.7995C95.8229 48.4064 94.9692 48.4891 93.9095 48.4891H93.88C92.8497 48.4891 92.2021 48.3236 91.8194 48.0753C91.4367 47.8547 91.2601 47.4961 91.2306 46.8892ZM99.2377 42.5583C99.2377 41.3721 98.8256 40.3514 97.9425 39.6894C97.0593 38.9998 95.7935 38.6963 94.1744 38.6963H94.1155H94.0861C92.3787 38.6963 91.0246 39.0549 89.9648 40.0756L89.9059 40.1308C89.8176 40.2135 89.7587 40.2963 89.6704 40.379L89.5527 40.4894C89.4938 40.5721 89.4644 40.6549 89.4644 40.7376C89.4644 40.8204 89.5232 40.9307 89.6115 40.9859L89.6704 41.0411C89.6999 41.0687 89.7293 41.0962 89.7587 41.1238L89.9942 41.2893L90.6124 41.7859C90.7008 41.8411 90.7891 41.8962 90.9068 41.8686C90.9951 41.8686 91.1129 41.8135 91.1718 41.7583L91.5545 41.3169C91.79 41.0687 92.0549 40.8756 92.3493 40.7652C92.7908 40.5997 93.3502 40.517 94.145 40.4894H94.1744C95.3225 40.4894 96.029 40.7101 96.4411 41.0411C96.8533 41.3721 97.0593 41.8686 97.0593 42.641V42.6686V43.3858H93.674C92.3198 43.3858 91.1718 43.6893 90.3475 44.2686C89.5232 44.8479 89.0817 45.7582 89.0817 46.8064V46.834C89.0817 47.7167 89.4349 48.5719 90.0826 49.1788C90.9363 49.9787 92.1138 50.2822 93.8506 50.2822H93.88H94.7632C96.3528 50.2822 97.5009 49.9236 98.2369 49.1788C98.9728 48.434 99.2672 47.3581 99.2672 46.0064L99.2377 42.5583Z" fill="#6B196B"/>
<path d="M51.7809 38.7241C51.4276 38.7241 51.0744 38.9723 50.9861 39.3034L48.6899 46.8893C48.6016 47.1928 48.425 47.2204 48.3072 46.8893L45.6284 39.2758C45.5106 38.9723 45.1574 38.7241 44.8041 38.7241H44.3331C43.9799 38.7241 43.5972 38.9723 43.5089 39.2758L40.8595 46.8893C40.7417 47.1928 40.5945 47.1928 40.4768 46.8893L38.1512 39.3034C38.0629 38.9999 37.6802 38.7241 37.3269 38.7241H36.3555C36.0022 38.7241 35.7961 38.9723 35.9139 39.3034L39.4759 49.7858C39.5936 50.0892 39.9469 50.3651 40.3001 50.3651H40.9772C41.301 50.3651 41.6248 50.1444 41.7131 49.8686L44.3626 42.4481C44.4803 42.1446 44.6569 42.1446 44.7747 42.4481L47.4241 49.8134C47.5419 50.1168 47.9245 50.3651 48.2484 50.3651H48.896C49.2198 50.3651 49.5731 50.1168 49.6614 49.841L53.1939 39.3034C53.3117 38.9999 53.1056 38.7241 52.7524 38.7241H51.7809V38.7241Z" fill="#6B196B"/>
<path d="M63.85 44.1861C63.85 40.738 61.9071 38.5863 58.7572 38.5863C55.5779 38.5863 53.6645 40.7931 53.6645 44.4896C53.6645 48.2964 55.5779 50.3928 59.081 50.3928C61.2594 50.3928 62.4075 49.7032 63.585 48.5998L63.7322 48.4619L62.2309 47.2205L62.0837 47.3585C61.1417 48.2412 60.3469 48.5722 59.1105 48.5722C57.0498 48.5722 55.8723 47.3309 55.8134 45.0965H63.85V44.1861ZM55.8429 43.4965C55.8723 42.7793 55.9312 42.4483 56.1667 41.8965C56.6082 40.9311 57.5797 40.3242 58.7572 40.3242C59.9347 40.3242 60.9062 40.9311 61.3477 41.869C61.5832 42.4207 61.6421 42.7241 61.6716 43.4689H55.8429V43.4965Z" fill="#6B196B"/>
<path d="M33.2658 41.1514C33.9723 41.1514 34.5316 40.6273 34.5316 39.9652C34.5316 39.3032 33.9723 38.7791 33.2658 38.7791C32.5593 38.7791 32 39.3032 32 39.9652C32 40.5997 32.5593 41.1514 33.2658 41.1514Z" fill="#D5006C"/>
<path d="M109.952 50.3377C110.658 50.3377 111.218 49.8136 111.218 49.1515C111.218 48.4895 110.658 47.9654 109.952 47.9654C109.245 47.9654 108.686 48.4895 108.686 49.1515C108.686 49.8136 109.275 50.3377 109.952 50.3377Z" fill="#D5006C"/>
</svg>
