<svg xmlns="http://www.w3.org/2000/svg" viewBox="0 0 64 64" role="img" aria-label="Juan Fernandez">
  <rect width="64" height="64" rx="11.52" fill="#2A3B4C"/>
  <g fill="#F6F1E8">
    <g transform="translate(9.578 42.102) scale(0.04449 -0.04449)"><path d="M49.399658203125 -200Q-77.7998046875 -200 -77.7998046875 -144.95013427734375Q-77.7998046875 -125.75018310546875 -61.599853515625 -108.27523803710938Q-45.39990234375 -90.80029296875 -30.54998779296875 -90.80029296875Q-18.64996337890625 -90.80029296875 -7.74993896484375 -96.57528686523438Q3.15008544921875 -102.35028076171875 13.15008544921875 -114.7003173828125Q30 -135.1002197265625 39.95001220703125 -146.77511596679688Q49.9000244140625 -158.45001220703125 61.800048828125 -158.45001220703125Q93.5001220703125 -158.45001220703125 109.55010986328125 -118.42495727539062Q125.60009765625 -78.39990234375 125.60009765625 4.4998779296875V551Q125.60009765625 584.3500366210938 111.7000732421875 598.0250549316406Q97.800048828125 611.7000732421875 59.60009765625 619.800048828125Q34.2999267578125 625.2500610351562 34.2999267578125 640.9000244140625Q34.2999267578125 647.4500122070312 41.199951171875 650.7749938964844Q48.0999755859375 654.0999755859375 57.25006103515625 654.0999755859375Q81.5001220703125 654.0999755859375 104.5 653.0999755859375Q127.4998779296875 652.0999755859375 149.27474975585938 651.0499877929688Q171.04962158203125 650 192.399658203125 650Q211.94964599609375 650 232.07443237304688 650.7749938964844Q252.19921875 651.5499877929688 274.2240295410156 652.5499877929688Q296.24884033203125 653.5499877929688 319.94891357421875 653.5499877929688Q330.198974609375 653.5499877929688 335.9990234375 650.5Q341.799072265625 647.4500122070312 341.799072265625 640.3500366210938Q341.799072265625 631.7000732421875 335.44903564453125 627.2500610351562Q329.0989990234375 622.800048828125 316.4989013671875 619.800048828125Q277.2989501953125 610.0501098632812 266.198974609375 596.3750915527344Q255.0989990234375 582.7000732421875 255.0989990234375 550.4500122070312V72.84942626953125Q255.0989990234375 41.2991943359375 243.74896240234375 6.774139404296875Q232.39892578125 -27.75091552734375 213.89892578125 -60.325836181640625Q195.39892578125 -92.9007568359375 174.9990234375 -119.05059814453125Q148.399169921875 -153.5003662109375 116.14935302734375 -176.75018310546875Q83.8995361328125 -200 49.399658203125 -200Z"/></g>
    <g transform="translate(28.542 50.777) scale(0.05719 -0.05719)"><path d="M44.7003173828125 -3.9000244140625Q35.55023193359375 -3.9000244140625 28.65020751953125 -0.575042724609375Q21.75018310546875 2.74993896484375 21.75018310546875 9.2999267578125Q21.75018310546875 24.04986572265625 47.05035400390625 29.4998779296875Q85.05035400390625 37.04986572265625 99.27536010742188 50.84991455078125Q113.5003662109375 64.64996337890625 113.5003662109375 98.35003662109375V537.9496459960938Q113.5003662109375 575.7998046875 101.45037841796875 594.0249328613281Q89.400390625 612.2500610351562 53.05035400390625 619.800048828125Q38.80029296875 622.800048828125 32.725250244140625 628.3500366210938Q26.65020751953125 633.9000244140625 26.65020751953125 640.3500366210938Q26.65020751953125 646.9000244140625 33.275238037109375 650.5Q39.9002685546875 654.0999755859375 50.7003173828125 654.0999755859375Q79.45050048828125 654.0999755859375 105.22549438476562 653.0999755859375Q131.00048828125 652.0999755859375 156.00048828125 651.0499877929688Q181.00048828125 650 207.3006591796875 650Q243.45050048828125 650 285.5252990722656 650.0Q327.60009765625 650 366.2999267578125 650Q404.34979248046875 650 434.899658203125 655.2749938964844Q465.44952392578125 660.5499877929688 485.64947509765625 660.5499877929688Q492.2994384765625 660.5499877929688 499.6744079589844 657.1750183105469Q507.04937744140625 653.800048828125 508.04937744140625 644.9501342773438Q510.04937744140625 626.2503051757812 511.04937744140625 602.2753601074219Q512.0493774414062 578.3004150390625 512.5493774414062 556.3754577636719Q513.0493774414062 534.4505004882812 513.0493774414062 521.400634765625Q513.0493774414062 500.95062255859375 501.84942626953125 500.95062255859375Q496.84942626953125 500.95062255859375 491.199462890625 504.7256164550781Q485.54949951171875 508.5006103515625 483.54949951171875 515.7005615234375Q477.8995361328125 537.6504516601562 470.5245666503906 555.100341796875Q463.14959716796875 572.5502319335938 452.2996826171875 583.400146484375Q438.84967041015625 597.7501831054688 421.5746765136719 603.8001708984375Q404.2996826171875 609.8501586914062 381.44976806640625 609.8501586914062H289.64898681640625Q265.54901123046875 609.8501586914062 254.4991455078125 596.5001220703125Q243.44927978515625 583.1500854492188 242.999267578125 562.0501098632812Q242.54925537109375 544.1500854492188 242.54925537109375 518.8500366210938Q242.54925537109375 493.54998779296875 242.54925537109375 472.4998779296875Q242.54925537109375 449.14984130859375 242.54925537109375 423.14984130859375Q242.54925537109375 397.14984130859375 242.999267578125 376.39990234375Q242.999267578125 365.64996337890625 247.52420043945312 359.4749450683594Q252.04913330078125 353.2999267578125 261.799072265625 353.2999267578125Q288.84918212890625 353.2999267578125 316.6242980957031 353.9749450683594Q344.3994140625 354.64996337890625 365.14935302734375 354.64996337890625Q389.34930419921875 354.64996337890625 402.8743591308594 368.84991455078125Q416.3994140625 383.04986572265625 424.4993896484375 402.7998046875Q427.599365234375 409.54974365234375 433.3243713378906 414.94976806640625Q439.04937744140625 420.34979248046875 444.14935302734375 420.34979248046875Q448.6993408203125 420.34979248046875 453.14935302734375 415.0248107910156Q457.599365234375 409.6998291015625 456.599365234375 400.4998779296875Q455.04937744140625 380.74993896484375 453.7743835449219 364.1750183105469Q452.4993896484375 347.60009765625 452.4993896484375 333.95013427734375Q452.4993896484375 316.2001953125 453.4993896484375 302.0751647949219Q454.4993896484375 287.95013427734375 456.04937744140625 265.400146484375Q457.14935302734375 254.000244140625 454.54937744140625 248.17526245117188Q451.94940185546875 242.35028076171875 446.4993896484375 242.35028076171875Q438.14935302734375 242.35028076171875 431.8243713378906 250.25030517578125Q425.4993896484375 258.15032958984375 422.94940185546875 265.9002685546875Q414.84942626953125 293.3001708984375 402.2243957519531 303.1751403808594Q389.599365234375 313.05010986328125 373.74945068359375 313.05010986328125Q361.84942626953125 313.05010986328125 349.6244201660156 313.2751159667969Q337.3994140625 313.5001220703125 325.94940185546875 313.5001220703125Q310.599365234375 313.5001220703125 295.14935302734375 313.5001220703125Q279.6993408203125 313.5001220703125 264.79931640625 312.60009765625Q254.24932861328125 312.15008544921875 248.07431030273438 306.3750915527344Q241.8992919921875 300.60009765625 241.8992919921875 288.7000732421875Q241.8992919921875 243.25006103515625 242.67428588867188 194.92507934570312Q243.44927978515625 146.60009765625 244.34930419921875 99.35003662109375Q245.24932861328125 67.9000244140625 260.94927978515625 52.74993896484375Q276.64923095703125 37.599853515625 316.94915771484375 29.4998779296875Q329.54925537109375 27.04986572265625 335.8992919921875 22.774871826171875Q342.24932861328125 18.4998779296875 342.24932861328125 9.84991455078125Q342.24932861328125 3.2999267578125 336.44927978515625 -0.025054931640625Q330.64923095703125 -3.35003662109375 320.399169921875 -3.35003662109375Q296.6990966796875 -3.35003662109375 272.5743103027344 -1.9000244140625Q248.44952392578125 -0.45001220703125 225.94976806640625 0.774993896484375Q203.45001220703125 2 183.9000244140625 2Q162.0999755859375 2 139.2000732421875 0.774993896484375Q116.3001708984375 -0.45001220703125 92.62527465820312 -2.175018310546875Q68.95037841796875 -3.9000244140625 44.7003173828125 -3.9000244140625Z"/></g>
  </g>
</svg>