<svg xmlns="http://www.w3.org/2000/svg" viewBox="0 0 64 64">
  <rect width="64" height="64" rx="11.52" fill="#2A3B4C"/>
  <g fill="#F6F1E8" transform="translate(9.217 42.543) scale(0.04649 -0.04649)">
    <path d="M42.119384765625 -200Q-73.6396484375 -200 -73.6396484375 -147.81024169921875Q-73.6396484375 -129.65032958984375 -58.479736328125 -113.34542846679688Q-43.31982421875 -97.04052734375 -30.28997802734375 -97.04052734375Q-17.86993408203125 -97.04052734375 -6.44989013671875 -102.68551635742188Q4.97015380859375 -108.33050537109375 14.97015380859375 -121.4605712890625Q30 -139.7803955078125 40.21002197265625 -149.24520874023438Q50.4200439453125 -158.71002197265625 62.840087890625 -158.71002197265625Q96.1002197265625 -158.71002197265625 111.89019775390625 -117.51492309570312Q127.68017578125 -76.31982421875 127.68017578125 1.8997802734375V551Q127.68017578125 585.1300659179688 113.2601318359375 599.1950988769531Q98.840087890625 613.2601318359375 61.68017578125 620.840087890625Q32.7398681640625 626.5501098632812 32.7398681640625 641.4200439453125Q32.7398681640625 647.7100219726562 40.159912109375 650.6449890136719Q47.5799560546875 653.5799560546875 58.55010986328125 653.5799560546875Q84.1002197265625 653.5799560546875 104.5 652.5799560546875Q124.8997802734375 651.5799560546875 143.94454956054688 650.7899780273438Q162.98931884765625 650 185.119384765625 650Q204.40936279296875 650 219.98397827148438 650.6449890136719Q235.55859375 651.2899780273438 253.55325317382812 652.2899780273438Q271.54791259765625 653.2899780273438 296.80804443359375 653.2899780273438Q308.358154296875 653.2899780273438 315.1982421875 650.5Q322.038330078125 647.7100219726562 322.038330078125 641.1300659179688Q322.038330078125 633.2601318359375 314.90826416015625 628.5501098632812Q307.7781982421875 623.840087890625 293.0980224609375 620.840087890625Q254.9381103515625 612.3901977539062 244.358154296875 598.3251647949219Q233.7781982421875 584.2601318359375 233.7781982421875 550.7100219726562V60.62896728515625Q233.7781982421875 24.1385498046875 221.64813232421875 -11.556549072265625Q209.51806640625 -47.25164794921875 191.01806640625 -78.13650512695312Q172.51806640625 -109.0213623046875 154.1982421875 -131.79107666015625Q130.718505859375 -161.3006591796875 102.36883544921875 -180.65032958984375Q74.0191650390625 -200 42.119384765625 -200Z"/>
  </g>
  <g fill="#F6F1E8" transform="translate(23.503 51.576) scale(0.05970 -0.05970)">
    <path d="M51.4605712890625 -4.4200439453125Q40.49041748046875 -4.4200439453125 33.07037353515625 -1.485076904296875Q25.65032958984375 1.44989013671875 25.65032958984375 7.7398681640625Q25.65032958984375 21.18975830078125 54.59063720703125 26.8997802734375Q92.59063720703125 34.18975830078125 106.94564819335938 49.02984619140625Q121.3006591796875 63.86993408203125 121.3006591796875 99.13006591796875V530.4093627929688Q121.3006591796875 571.6396484375 109.51068115234375 592.5948791503906Q97.720703125 613.5501098632812 60.59063720703125 620.840087890625Q45.04052734375 623.840087890625 38.055450439453125 629.1300659179688Q31.07037353515625 634.4200439453125 31.07037353515625 641.1300659179688Q31.07037353515625 647.4200439453125 38.345428466796875 650.5Q45.6204833984375 653.5799560546875 57.4605712890625 653.5799560546875Q90.11090087890625 653.5799560546875 115.75588989257812 652.5799560546875Q141.40087890625 651.5799560546875 166.40087890625 650.7899780273438Q191.40087890625 650 221.3411865234375 650Q254.11090087890625 650 291.8955383300781 650.0Q329.68017578125 650 364.7398681640625 650Q399.92962646484375 650 427.619384765625 655.1449890136719Q455.30914306640625 660.2899780273438 474.46905517578125 660.2899780273438Q480.3389892578125 660.2899780273438 487.0639343261719 657.5650329589844Q493.78887939453125 654.840087890625 494.78887939453125 647.8102416992188Q496.78887939453125 632.7505493164062 497.78887939453125 609.9456481933594Q498.78887939453125 587.1407470703125 499.28887939453125 566.1258239746094Q499.78887939453125 545.1109008789062 499.78887939453125 534.921142578125Q499.78887939453125 514.2111206054688 489.62896728515625 514.2111206054688Q484.62896728515625 514.2111206054688 479.759033203125 517.8561096191406Q474.88909912109375 521.5010986328125 472.88909912109375 527.6610107421875Q468.0191650390625 547.2708129882812 461.2942199707031 562.380615234375Q454.56927490234375 577.4904174804688 445.5394287109375 586.520263671875Q431.82940673828125 601.6503295898438 414.6844177246094 607.4403076171875Q397.5394287109375 613.2302856445312 376.50958251953125 613.2302856445312H268.06817626953125Q244.48822021484375 613.2302856445312 236.2984619140625 599.1002197265625Q228.10870361328125 584.9701538085938 227.398681640625 564.3901977539062Q226.68865966796875 545.9701538085938 226.68865966796875 519.6300659179688Q226.68865966796875 493.28997802734375 226.68865966796875 469.8997802734375Q226.68865966796875 445.76971435546875 226.68865966796875 419.76971435546875Q226.68865966796875 393.76971435546875 227.398681640625 374.31982421875Q227.398681640625 364.86993408203125 230.49356079101562 358.3049011230469Q233.58843994140625 351.7398681640625 242.038330078125 351.7398681640625Q271.42852783203125 351.7398681640625 301.6737365722656 352.8049011230469Q331.9189453125 353.86993408203125 351.36883544921875 353.86993408203125Q374.52874755859375 353.86993408203125 389.2238464355469 367.02984619140625Q403.9189453125 380.18975830078125 411.4989013671875 398.6396484375Q414.078857421875 404.08953857421875 419.9338684082031 410.00958251953125Q425.78887939453125 415.92962646484375 430.36883544921875 415.92962646484375Q434.6588134765625 415.92962646484375 439.36883544921875 410.9946594238281Q444.078857421875 406.0596923828125 443.078857421875 397.8997802734375Q441.78887939453125 379.44989013671875 440.6438903808594 364.5650329589844Q439.4989013671875 349.68017578125 439.4989013671875 336.81024169921875Q439.4989013671875 320.3603515625 440.4989013671875 305.5852966308594Q441.4989013671875 290.81024169921875 442.78887939453125 268.520263671875Q443.36883544921875 259.200439453125 441.28887939453125 253.76547241210938Q439.20892333984375 248.33050537109375 433.4989013671875 248.33050537109375Q424.36883544921875 248.33050537109375 418.4338684082031 256.75054931640625Q412.4989013671875 265.17059326171875 410.20892333984375 271.6204833984375Q402.62896728515625 296.9403076171875 389.3539123535156 306.1652526855469Q376.078857421875 315.39019775390625 362.04901123046875 315.39019775390625Q349.62896728515625 315.39019775390625 337.2739562988281 315.7452087402344Q324.9189453125 316.1002197265625 313.20892333984375 316.1002197265625Q297.078857421875 316.1002197265625 281.36883544921875 316.1002197265625Q265.6588134765625 316.1002197265625 250.23876953125 314.68017578125Q239.94879150390625 313.97015380859375 233.38375854492188 308.3251647949219Q226.8187255859375 302.68017578125 226.8187255859375 290.2601318359375Q226.8187255859375 244.55010986328125 227.46371459960938 196.61514282226562Q228.10870361328125 148.68017578125 229.52874755859375 100.13006591796875Q230.94879150390625 68.4200439453125 245.60870361328125 51.44989013671875Q260.26861572265625 34.479736328125 299.00848388671875 26.8997802734375Q313.68865966796875 24.18975830078125 320.8187255859375 20.044769287109375Q327.94879150390625 15.8997802734375 327.94879150390625 8.02984619140625Q327.94879150390625 1.7398681640625 321.10870361328125 -1.195098876953125Q314.26861572265625 -4.13006591796875 302.718505859375 -4.13006591796875Q277.4583740234375 -4.13006591796875 257.8837585449219 -2.4200439453125Q238.30914306640625 -0.71002197265625 221.00958251953125 0.644989013671875Q203.71002197265625 2 184.4200439453125 2Q161.5799560546875 2 140.7601318359375 0.644989013671875Q119.9403076171875 -0.71002197265625 98.47549438476562 -2.565032958984375Q77.01068115234375 -4.4200439453125 51.4605712890625 -4.4200439453125Z"/>
  </g>
</svg>