<svg xmlns="http://www.w3.org/2000/svg" viewBox="0 0 64 64"><rect width="64" height="64" rx="11.52" fill="#2A3B4C"/><g fill="#F6F1E8" transform="translate(3.134727710843382,50.56) scale(0.05590361445783132,-0.05590361445783132)"><g transform="translate(82,0)"><path d="M56.960205078125 -3.0Q-82.1201171875 -3.0 -82.1201171875 42.058869586074564Q-82.1201171875 57.80850637335527 -64.840087890625 72.32333898711624Q-47.56005859375 86.8381716008772 -30.82000732421875 86.8381716008772Q-19.46002197265625 86.8381716008772 -9.10003662109375 82.24841437088816Q1.25994873046875 77.65865714089912 11.25994873046875 68.6966157255117Q30.0 51.17628951937135 39.67999267578125 40.32702479669226Q49.3599853515625 29.477760074013162 60.719970703125 29.477760074013162Q90.7999267578125 29.477760074013162 107.11993408203125 59.61789822048611Q123.43994140625 89.75803636695906 123.43994140625 157.91327325475146V580.2327485380117Q123.43994140625 605.5035618832237 110.0799560546875 615.8091439944262Q96.719970703125 626.1147261056287 57.43994140625 632.8246322185673Q35.9200439453125 636.8474569398758 35.9200439453125 649.6304447642544Q35.9200439453125 654.9269182885599 42.280029296875 657.8236753586441Q48.6400146484375 660.7204324287281 55.89996337890625 660.7204324287281Q78.7999267578125 660.7204324287281 104.5 659.9438242415936Q130.2000732421875 659.1672160544591 154.81015014648438 658.1420875593933Q179.42022705078125 657.1169590643275 199.960205078125 657.1169590643275Q219.78021240234375 657.1169590643275 244.63034057617188 657.8236753586441Q269.48046875 658.5303916529606 295.6905822753906 659.3069998400952Q321.90069580078125 660.0836080272296 343.98065185546875 660.0836080272296Q352.880615234375 660.0836080272296 357.6005859375 657.5052631578948Q362.320556640625 654.9269182885599 362.320556640625 648.9936203627559Q362.320556640625 641.6468898483188 356.78057861328125 638.4006733141448Q351.2406005859375 635.1544567799708 340.8006591796875 632.8246322185673Q300.5206298828125 624.204252901133 288.880615234375 613.8986707899305Q277.2406005859375 603.5930886787281 277.2406005859375 579.5959241365132V218.75296909265353Q277.2406005859375 198.2350888614766 266.70062255859375 172.36629574424342Q256.16064453125 146.49750262701025 237.66064453125 119.83650659036917Q219.16064453125 93.17551055372807 196.6005859375 70.14123777869152Q166.760498046875 39.40297765899123 130.46038818359375 18.201488829495617Q94.1602783203125 -3.0 56.960205078125 -3.0Z"/></g><g transform="translate(505.67999999999995,0)"><path d="M37.6798095703125 -3.3599853515625Q30.41986083984375 -3.3599853515625 24.05987548828125 0.370025634765625Q17.69989013671875 4.10003662109375 17.69989013671875 10.9200439453125Q17.69989013671875 27.02008056640625 39.21978759765625 32.2000732421875Q77.21978759765625 40.02008056640625 91.30978393554688 52.74005126953125Q105.3997802734375 65.46002197265625 105.3997802734375 97.53997802734375V545.7802124023438Q105.3997802734375 580.1201171875 93.07977294921875 595.5100402832031Q80.759765625 610.8999633789062 45.21978759765625 618.719970703125Q32.31982421875 621.719970703125 27.189849853515625 627.5399780273438Q22.05987548828125 633.3599853515625 22.05987548828125 639.5399780273438Q22.05987548828125 646.3599853515625 28.009857177734375 650.5Q33.9598388671875 654.6400146484375 43.6798095703125 654.6400146484375Q68.37969970703125 654.6400146484375 94.28970336914062 653.6400146484375Q120.19970703125 652.6400146484375 145.19970703125 651.3200073242188Q170.19970703125 650 192.7196044921875 650Q232.37969970703125 650 278.9098205566406 650.0Q325.43994140625 650 367.9200439453125 650Q408.94012451171875 650 442.460205078125 655.4100036621094Q475.98028564453125 660.8200073242188 497.26031494140625 660.8200073242188Q504.7203369140625 660.8200073242188 512.7703552246094 656.7699890136719Q520.8203735351562 652.719970703125 521.8203735351562 641.9799194335938Q523.8203735351562 619.4998168945312 524.8203735351562 594.3097839355469Q525.8203735351562 569.1197509765625 526.3203735351562 546.2497253417969Q526.8203735351562 523.3796997070312 526.8203735351562 507.359619140625Q526.8203735351562 487.17962646484375 514.5403442382812 487.17962646484375Q509.54034423828125 487.17962646484375 503.080322265625 491.0896301269531Q496.62030029296875 494.9996337890625 494.62030029296875 503.2796630859375Q488.1602783203125 527.6597290039062 480.1102600097656 547.539794921875Q472.06024169921875 567.4198608398438 459.3201904296875 580.159912109375Q446.14019775390625 593.6998901367188 428.7301940917969 600.0198974609375Q411.3201904296875 606.3399047851562 386.58013916015625 606.3399047851562H312.06060791015625Q287.42059326171875 606.3399047851562 273.4005126953125 593.7999267578125Q259.38043212890625 581.2599487304688 259.200439453125 559.6199340820312Q259.02044677734375 542.2599487304688 259.02044677734375 518.0399780273438Q259.02044677734375 493.82000732421875 259.02044677734375 475.2000732421875Q259.02044677734375 452.66009521484375 259.02044677734375 426.66009521484375Q259.02044677734375 400.66009521484375 259.200439453125 378.56005859375Q259.200439453125 366.46002197265625 265.2104797363281 360.6900329589844Q271.22052001953125 354.9200439453125 282.320556640625 354.9200439453125Q306.94049072265625 354.9200439453125 332.1504211425781 355.1900329589844Q357.3603515625 355.46002197265625 379.46038818359375 355.46002197265625Q404.74041748046875 355.46002197265625 417.0503845214844 370.74005126953125Q429.3603515625 386.02008056640625 438.0003662109375 407.1201171875Q441.640380859375 415.22015380859375 447.2303771972656 420.08013916015625Q452.82037353515625 424.94012451171875 458.46038818359375 424.94012451171875Q463.2803955078125 424.94012451171875 467.46038818359375 419.2101135253906Q471.640380859375 413.4801025390625 470.640380859375 403.2000732421875Q468.82037353515625 382.10003662109375 467.4103698730469 363.7699890136719Q466.0003662109375 345.43994140625 466.0003662109375 330.97991943359375Q466.0003662109375 311.8798828125 467.0003662109375 298.4299011230469Q468.0003662109375 284.97991943359375 469.82037353515625 262.159912109375Q471.46038818359375 248.599853515625 468.32037353515625 242.36984252929688Q465.18035888671875 236.13983154296875 460.0003662109375 236.13983154296875Q452.46038818359375 236.13983154296875 445.7303771972656 243.49981689453125Q439.0003662109375 250.85980224609375 436.18035888671875 259.9598388671875Q427.54034423828125 289.5198974609375 415.5903625488281 300.0699157714844Q403.640380859375 310.61993408203125 385.90032958984375 310.61993408203125Q374.54034423828125 310.61993408203125 362.4503479003906 310.7099304199219Q350.3603515625 310.7999267578125 339.18035888671875 310.7999267578125Q324.640380859375 310.7999267578125 309.46038818359375 310.7999267578125Q294.2803955078125 310.7999267578125 279.92041015625 310.43994140625Q269.10040283203125 310.25994873046875 263.3304138183594 304.3499450683594Q257.5604248046875 298.43994140625 257.5604248046875 287.0799560546875Q257.5604248046875 241.89996337890625 258.4704284667969 193.16995239257812Q259.38043212890625 144.43994140625 259.74041748046875 98.53997802734375Q260.10040283203125 67.3599853515625 276.88043212890625 54.10003662109375Q293.66046142578125 40.840087890625 335.58050537109375 32.2000732421875Q346.02044677734375 30.02008056640625 351.5604248046875 25.610076904296875Q357.10040283203125 21.2000732421875 357.10040283203125 11.74005126953125Q357.10040283203125 4.9200439453125 352.38043212890625 1.190032958984375Q347.66046142578125 -2.53997802734375 338.760498046875 -2.53997802734375Q316.6805419921875 -2.53997802734375 287.8304138183594 -1.3599853515625Q258.98028564453125 -0.17999267578125 231.08013916015625 0.910003662109375Q203.17999267578125 2 183.3599853515625 2Q162.6400146484375 2 137.5799560546875 0.910003662109375Q112.5198974609375 -0.17999267578125 86.54983520507812 -1.769989013671875Q60.57977294921875 -3.3599853515625 37.6798095703125 -3.3599853515625Z"/></g></g></svg>