<?xml version="1.0" encoding="UTF-8"?>
<svg id="Capa_1" data-name="Capa 1" xmlns="http://www.w3.org/2000/svg" viewBox="0 0 175.12 59.82">
  <defs>
    <style>
      .cls-1 {
        fill: #29abe3;
      }

      .cls-1, .cls-2, .cls-3, .cls-4, .cls-5, .cls-6 {
        stroke-width: 0px;
      }

      .cls-2 {
        fill: #2c7bc0;
      }

      .cls-3 {
        fill: none;
      }

      .cls-4 {
        fill: #3d62ab;
      }

      .cls-5 {
        fill: #a7c943;
      }

      .cls-6 {
        fill: #e84146;
      }
    </style>
  </defs>
  <g>
    <path class="cls-3" d="M38.37,46.65s-6.78-1.99-10.02-8.1c0,0,3.45,4.12,9.02,4.9,5.58.78,7.71.07,9.38,0,.92-.04,2.68-.23,4.49.18,1.63-4.47.79-9.4-2.57-12.56-4.68-4.4-12.47-3.71-17.4,1.54-4.94,5.25-5.15,13.07-.47,17.47,4.68,4.4,12.47,3.71,17.4-1.54.24-.26.47-.52.69-.79-2.89.27-6.54.15-10.52-1.1ZM30.69,35.61c1.12-.69,2.38-.83,3.71-.53,1.31.3,2.34.94,3.07,1.93.82,1.12.93,2.71-.2,3.76-.78.72-1.79,1.01-2.93,1-2.23,0-4.28-1.46-4.78-3.13-.33-1.12.13-2.42,1.13-3.04Z"/>
    <path class="cls-1" d="M23.25,15.97c3.66-.93,6.82-4.77,6.77-8.94,0-2.14-.65-4.03-2.26-5.48-2.34-2.11-5.83-1.91-8.29-.37-2.16,1.36-3.56,3.29-4.19,5.75-.63,2.48-.31,4.84,1.24,6.93,1.39,1.88,4.28,2.73,6.73,2.11Z"/>
    <path class="cls-1" d="M33.24,27.88c-.78-2.39-4.17-11.04-12.41-11.04C11.26,16.84,1.6,27.07.27,36.07c-1.33,9,2.46,18,4.83,19.89,0,0-3.6-11.93.66-20.55,1.23-2.49,3.14-4.76,5.39-6.46.03-.34.08-.69.17-1.04.39-1.53,1.26-2.73,2.61-3.58,1.53-.96,3.7-1.08,5.16.23.45.4.78.86,1,1.36,3.28.23,6.45,2.06,8.85,6.23,1.12-1.63,2.55-3.05,4.29-4.26Z"/>
    <path class="cls-1" d="M34.33,41.78c1.14.02,2.15-.27,2.93-1,1.13-1.05,1.02-2.64.2-3.76-.73-.99-1.76-1.63-3.07-1.93-1.33-.3-2.59-.17-3.71.53-1,.62-1.46,1.93-1.13,3.04.5,1.67,2.55,3.13,4.78,3.13Z"/>
    <path class="cls-4" d="M20.1,25.91c-.23-.5-.56-.96-1-1.36-1.46-1.31-3.63-1.19-5.16-.23-1.35.85-2.21,2.05-2.61,3.58-.09.35-.15.7-.17,1.04-.09,1.16.2,2.26.95,3.27.87,1.17,2.66,1.7,4.19,1.31,2.28-.58,4.25-2.97,4.21-5.56,0-.74-.12-1.43-.41-2.05Z"/>
    <path class="cls-4" d="M25.73,36.4c-10.03-5.21-15.77.45-15.77.45-6.96,5.75-2.06,14.56-2.06,14.56.5-17.9,17.83-15.01,17.83-15.01Z"/>
    <path class="cls-5" d="M39.64,24.21c2.54.66,4.73-.94,5.59-3.14.76-1.95.74-4.01-.03-6.17-.78-2.18-2.13-3.86-4.15-4.84-1.81-.87-4.11-.34-5.41,1.15-1.94,2.24-2.16,6.5-.12,9.7,1.02,1.66,2.37,2.84,4.12,3.3Z"/>
    <path class="cls-5" d="M50.22,27.69c-4.42-3.71-11.03-3.37-15.67-.65-.46.27-.89.55-1.31.84-1.74,1.21-3.17,2.63-4.29,4.26-1.03,1.5-1.81,3.18-2.31,5.02-1.2,4.37-.58,8.52,2.35,12.21,2.63,3.31,8.09,4.82,12.72,3.72,3.38-.8,6.54-2.83,8.87-5.55-.52.08-1.08.15-1.67.21-.22.27-.45.53-.69.79-4.94,5.25-12.73,5.94-17.4,1.54-4.68-4.4-4.47-12.22.47-17.47,4.94-5.25,12.73-5.94,17.4-1.54,3.36,3.16,4.2,8.09,2.57,12.56.53.12,1.07.29,1.59.53,1.08-2.11,1.69-4.43,1.66-6.82.02-3.77-1.24-7.1-4.28-9.66Z"/>
    <path class="cls-1" d="M52.84,44.17c-.52-.24-1.06-.41-1.59-.53-1.81-.41-3.57-.22-4.49-.18-1.67.07-3.8.78-9.38,0-5.58-.78-9.02-4.9-9.02-4.9,3.23,6.11,10.02,8.1,10.02,8.1,3.98,1.24,7.63,1.37,10.52,1.1.59-.06,1.15-.13,1.67-.21,2.99-.47,4.82-1.28,4.82-1.28-.72-1-1.61-1.66-2.55-2.09Z"/>
  </g>
  <path class="cls-3" d="M88.76,36.05c-3.46.04-6.54,2.83-7.32,6.62-.73,3.58,1.3,6.11,4.92,6.15.41-.05.83-.05,1.22-.15,3.44-.85,5.45-3.14,6.21-6.49.83-3.7-1.27-6.17-5.04-6.13Z"/>
  <path class="cls-3" d="M135.47,36.27c-2.25-.35-4.45-.12-6.49.93-3.2,1.64-5.25,4.13-5.51,7.21-.01,3.13,1.28,4.42,3.76,4.37,2.15-.04,3.77-1.18,5.19-2.67,2.46-2.6,2.72-6.06,3.57-9.29.04-.14-.32-.52-.53-.55Z"/>
  <path class="cls-3" d="M166.54,36.24c-3.91.66-7.25,3.87-8.02,7.71-.64,3.23,1.45,5.32,4.66,4.64,1.68-.35,3.01-1.29,4.17-2.51,2.58-2.7,2.79-6.29,3.76-9.73-1.63-.45-3.1-.36-4.58-.11Z"/>
  <path class="cls-2" d="M172.58,34.2c-3.39-.38-6.74-.31-9.94,1.04-3.84,1.62-6.62,4.23-7.61,8.43-.85,3.61,1.07,6.67,4.45,7.08,3.63.44,6.63-.73,8.95-3.59.2-.24.42-.46.63-.69.04.61-.08,1.1-.23,1.57-.56,1.82.57,3,2.53,2.59.06-.52.07-1.07.19-1.58,1.01-4.26,2.03-8.51,3.07-12.77.12-.51.34-1,.51-1.5v-.19c-.85-.13-1.69-.29-2.54-.38ZM167.36,46.08c-1.16,1.22-2.49,2.16-4.17,2.51-3.21.68-5.31-1.41-4.66-4.64.77-3.84,4.11-7.06,8.02-7.71,1.48-.25,2.95-.34,4.58.11-.98,3.44-1.19,7.03-3.76,9.73Z"/>
  <path class="cls-2" d="M139.4,34.52c-3.9-.65-7.79-.77-11.54.73-3.9,1.56-6.75,4.17-7.78,8.39-.88,3.59.74,6.49,3.99,7.11,3.57.68,6.58-.37,9.01-3.08.33-.37.65-.75.97-1.12.07.03.14.07.21.1-.14.47-.27.94-.42,1.4-.5,1.51.07,2.42,1.65,2.7.6.11.84-.12.97-.71.66-3.07,1.33-6.13,2.03-9.19.47-2.03,1.01-4.05,1.52-6.09-.26-.1-.43-.2-.61-.23ZM132.42,46.11c-1.41,1.49-3.03,2.63-5.19,2.67-2.48.05-3.77-1.25-3.76-4.37.25-3.08,2.31-5.56,5.51-7.21,2.04-1.05,4.23-1.28,6.49-.93.21.03.57.42.53.55-.85,3.23-1.11,6.69-3.57,9.29Z"/>
  <path class="cls-2" d="M70.35,30.51c2.32-.01,4.64,0,6.97,0,1.29,0,1.84-.6,1.84-1.97-.12-.02-.24-.06-.36-.06-4.1,0-8.21-.03-12.31.01-1.51.01-2.46.92-2.85,2.47-.99,4-1.99,8-2.99,11.99-.94,3.75-1.89,7.5-2.82,11.26-.24.97.24,1.8,1.17,2.05,1.22.33,1.79.03,2.07-1.11.96-3.88,1.93-7.75,2.86-11.64.18-.73.47-1.02,1.28-1.01,2.64.06,5.28.02,7.92.02,1.56,0,2.18-.59,2.34-2.35h-10.67c.59-2.35,1.13-4.53,1.7-6.7.53-2,1.78-2.96,3.86-2.97Z"/>
  <path class="cls-2" d="M91.94,34.3c-1.72-.29-3.58-.31-5.29.02-4.19.82-7.25,3.19-8.56,7.39-1.3,4.16.63,7.63,4.82,8.76.97.26,2,.31,3,.45,0-.03,0-.05.01-.08.54-.02,1.08-.04,1.62-.07,4.22-.25,8.3-3.34,9.64-7.31,1.51-4.44-.66-8.37-5.25-9.15ZM93.79,42.18c-.76,3.36-2.77,5.64-6.21,6.49-.4.1-.81.1-1.22.15-3.62-.04-5.66-2.57-4.92-6.15.78-3.79,3.86-6.58,7.32-6.62,3.77-.05,5.87,2.43,5.04,6.13Z"/>
  <path class="cls-2" d="M113.99,34.25c-3.36-.58-6.27.38-8.78,2.65-.21.19-.43.37-.64.56-.05-.04-.11-.08-.16-.13.18-1.05.35-2.1.56-3.33-.78,0-1.47.05-2.15-.01-.73-.06-.97.26-1.12.93-.88,3.83-1.8,7.65-2.7,11.48-.33,1.41-.66,2.81-1.03,4.37,1,0,1.85-.02,2.7,0,.54.02.78-.2.9-.73.54-2.35,1.12-4.69,1.71-7.02.83-3.3,2.79-5.62,6.11-6.58,3.36-.97,5.28.85,4.54,4.25-.54,2.48-1.18,4.93-1.77,7.4-.41,1.68.41,2.73,2.14,2.65.27-.01.71-.33.77-.59.89-3.6,1.81-7.19,2.55-10.83.54-2.66-.92-4.61-3.6-5.08Z"/>
  <path class="cls-2" d="M147.53,34.19c-1.7.26-3.26.87-4.43,2.2-1.43,1.61-1.37,3.67.25,5.08.71.61,1.6,1.02,2.41,1.51.78.47,1.67.83,2.34,1.43,1.16,1.02,1.02,2.61-.22,3.54-1.04.79-2.27,1.03-3.52.88-1.4-.16-2.78-.49-4.23-.76-.27.54-.55,1.12-.86,1.73.31.15.5.27.71.34,2.25.74,4.54.86,6.87.5,1.67-.26,3.21-.82,4.41-2.07,1.77-1.86,1.62-4.35-.44-5.88-.81-.6-1.75-1.01-2.64-1.51-.58-.33-1.21-.59-1.73-1-1.21-.93-1.21-2.46.07-3.28.69-.44,1.58-.79,2.38-.8,1.37-.03,2.75.23,4.27.38.2-.41.49-1,.84-1.72-2.21-.85-4.34-.88-6.49-.56Z"/>
  <rect class="cls-2" x="78.54" y="56.39" width="41.76" height="3.44"/>
  <rect class="cls-6" x="120.3" y="56.39" width="50.82" height="3.44"/>
</svg>